# xmcd
#
# Track frame offsets:
#	150
#	14522
#	30370
#	44732
#	61357
#	77197
#	90052
#	104505
#	116892
#	129522
#	148750
#	163762
#	174197
#	190450
#	206452
#	221245
#
# Disc length: 3158 seconds
#
# Revision: 0
# Processed by: cddbd v1.5.1PL2 Copyright (c) Steve Scherf et al.
# Submitted via: dBpowerAMP V4.0
#
DISCID=e50c5410
DTITLE=PJ O'Connell - Happy Go Lucky
DYEAR=2002
DGENRE=Omnipop
TTITLE0=Show
TTITLE1=Mrs Jerk
TTITLE2=Holiday
TTITLE3=Application
TTITLE4=Where'd You Go Last Night?
TTITLE5=Better Get Up
TTITLE6=The Dough Got Low
TTITLE7=Happy Go Lucky
TTITLE8=I Can't Stop Thinkin' About You
TTITLE9=Should Have Figured
TTITLE10=My Direction
TTITLE11=Old Moss Back
TTITLE12=Station Blues
TTITLE13=Happiness Is Havin'
TTITLE14=The Shell
TTITLE15=Where'd You Go Last Night? (reprise)
EXTD=
EXTT0=
EXTT1=
EXTT2=
EXTT3=
EXTT4=
EXTT5=
EXTT6=
EXTT7=
EXTT8=
EXTT9=
EXTT10=
EXTT11=
EXTT12=
EXTT13=
EXTT14=
EXTT15=
PLAYORDER=
